#!Matlab matrix to amc conversion
:FULLY-SPECIFIED
:DEGREES
87
root 0.516560 2.144374 38.637041 8.594795 -2.730168 3.949397
lowerback -2.958856 -0.216677 -6.712760
upperback 0.065904 -0.047917 1.847353
thorax 1.720845 -0.077242 5.701462
lowerneck -20.316635 -3.299255 -12.131236
upperneck 17.864336 -3.554487 12.753620
head 9.404704 -1.111187 5.990037
rclavicle 0.000000 -0.000000
rhumerus -25.284216 22.933106 -82.065005
rradius 34.586591
rwrist -13.055722
rhand -28.856200 -18.800500
rfingers 7.125020
rthumb -2.212790 -48.768800
lclavicle 0.000000 -0.000000
lhumerus -35.230443 -0.230077 79.415847
lradius 18.136838
lwrist -11.893924
lhand -19.668800 -28.799300
lfingers 7.125020
lthumb 6.659510 1.076010
rfemur -29.221461 -4.822663 18.815479
rtibia 70.451089
rfoot -17.961783 -12.550105
rtoes -20.766800
lfemur -22.770547 -1.595346 -26.598558
ltibia 33.497613
lfoot -18.203330 5.203753
ltoes -22.051700
88
root 0.534571 2.145727 39.099289 8.529123 -2.278138 3.748075
lowerback -2.870669 -0.381434 -6.394050
upperback -0.034930 -0.287863 1.948074
thorax 1.598110 -0.191264 5.613463
lowerneck -20.735353 -3.301864 -11.892594
upperneck 18.485680 -3.526987 12.315501
head 9.689613 -1.123418 5.814106
rclavicle 0.000000 -0.000000
rhumerus -26.350056 22.671987 -82.167934
rradius 34.373474
rwrist -12.967487
rhand -28.856200 -18.800500
rfingers 7.125020
rthumb -2.212790 -48.768800
lclavicle 0.000000 -0.000000
lhumerus -34.225178 -3.338777 81.236934
lradius 19.364088
lwrist -9.005241
lhand -19.668800 -28.799300
lfingers 7.125020
lthumb 6.659510 1.076010
rfemur -30.543735 -4.795043 19.214236
rtibia 69.529784
rfoot -18.781772 -12.313864
rtoes -20.766800
lfemur -21.765777 -1.707182 -26.471315
ltibia 33.240425
lfoot -18.627697 5.130209
ltoes -22.051700
89
root 0.554338 2.139261 39.564049 8.519369 -1.899869 3.572185
lowerback -2.803935 -0.518903 -6.142552
upperback -0.089779 -0.486905 2.026621
thorax 1.528876 -0.287169 5.542498
lowerneck -21.028388 -3.306308 -11.731547
upperneck 18.857894 -3.507476 12.014480
head 9.866237 -1.131884 5.692129
rclavicle 0.000000 -0.000000
rhumerus -27.221074 22.471452 -82.243607
rradius 34.299786
rwrist -12.966676
rhand -28.856200 -18.800500
rfingers 7.125020
rthumb -2.212790 -48.768800
lclavicle 0.000000 -0.000000
lhumerus -33.399328 -5.739090 82.502209
lradius 20.323508
lwrist -6.860425
lhand -19.668800 -28.799300
lfingers 7.125020
lthumb 6.659510 1.076010
rfemur -31.586546 -4.791211 19.527737
rtibia 68.667098
rfoot -19.301739 -12.128954
rtoes -20.766800
lfemur -21.006559 -1.798063 -26.361109
ltibia 33.027522
lfoot -18.970728 5.043183
ltoes -22.051700
90
root 0.575675 2.127586 40.031737 8.553606 -1.595436 3.429964
lowerback -2.742431 -0.637451 -5.962440
upperback -0.113577 -0.656761 2.091266
thorax 1.490238 -0.370024 5.499003
lowerneck -21.237947 -3.315373 -11.623404
upperneck 19.092508 -3.500683 11.812062
head 9.981686 -1.140551 5.608734
rclavicle 0.000000 -0.000000
rhumerus -27.959764 22.334162 -82.304157
rradius 34.268847
rwrist -12.991951
rhand -28.856200 -18.800500
rfingers 7.125020
rthumb -2.212790 -48.768800
lclavicle 0.000000 -0.000000
lhumerus -32.686878 -7.698847 83.435731
lradius 21.114238
lwrist -5.192164
lhand -19.668800 -28.799300
lfingers 7.125020
lthumb 6.659510 1.076010
rfemur -32.478381 -4.783707 19.793615
rtibia 67.827631
rfoot -19.725359 -11.956543
rtoes -20.766800
lfemur -20.431977 -1.906172 -26.268687
ltibia 32.908033
lfoot -19.308141 4.984815
ltoes -22.051700
91
root 0.598259 2.112206 40.503419 8.626632 -1.365532 3.320452
lowerback -2.679114 -0.737202 -5.848226
upperback -0.114487 -0.798214 2.144197
thorax 1.470364 -0.439768 5.482250
lowerneck -21.381335 -3.332633 -11.558041
upperneck 19.233827 -3.512048 11.691727
head 10.055186 -1.152578 5.556722
rclavicle 0.000000 -0.000000
rhumerus -28.594333 22.251727 -82.355198
rradius 34.250353
rwrist -13.029574
rhand -28.856200 -18.800500
rfingers 7.125020
rthumb -2.212790 -48.768800
lclavicle 0.000000 -0.000000
lhumerus -32.069114 -9.316704 84.128965
lradius 21.772069
lwrist -3.885558
lhand -19.668800 -28.799300
lfingers 7.125020
lthumb 6.659510 1.076010
rfemur -33.260846 -4.759847 20.024676
rtibia 67.017292
rfoot -20.114542 -11.790317
rtoes -20.766800
lfemur -20.020650 -2.035078 -26.192243
ltibia 32.896183
lfoot -19.655841 4.965756
ltoes -22.051700
92
root 0.621757 2.094341 40.980418 8.737630 -1.205543 3.236266
lowerback -2.612160 -0.817677 -5.787711
upperback -0.097893 -0.911345 2.186442
thorax 1.463076 -0.496159 5.486481
lowerneck -21.467972 -3.360539 -11.527677
upperneck 19.300967 -3.544741 11.639152
head 10.095307 -1.170077 5.529572
rclavicle 0.000000 -0.000000
rhumerus -29.143161 22.212268 -82.398787
rradius 34.242798
rwrist -13.085458
rhand -28.856200 -18.800500
rfingers 7.125020
rthumb -2.212790 -48.768800
lclavicle 0.000000 -0.000000
lhumerus -31.539543 -10.633717 84.633641
lradius 22.307891
lwrist -2.874934
lhand -19.668800 -28.799300
lfingers 7.125020
lthumb 6.659510 1.076010
rfemur -33.950896 -4.718303 20.229054
rtibia 66.267529
rfoot -20.484383 -11.632284
rtoes -20.766800
lfemur -19.765977 -2.177509 -26.127443
ltibia 32.990054
lfoot -20.007933 4.982373
ltoes -22.051700
93
root 0.645877 2.075096 41.464165 8.886352 -1.099901 3.164875
lowerback -2.544475 -0.880927 -5.761798
upperback -0.068219 -0.999756 2.219263
thorax 1.466106 -0.540805 5.501971
lowerneck -21.506174 -3.399161 -11.522384
upperneck 19.303917 -3.597806 11.635214
head 10.106624 -1.193677 5.518970
rclavicle 0.000000 -0.000000
rhumerus -29.625720 22.198693 -82.434568
rradius 34.262497
rwrist -13.176026
rhand -28.856200 -18.800500
rfingers 7.125020
rthumb -2.212790 -48.768800
lclavicle 0.000000 -0.000000
lhumerus -31.088354 -11.679683 84.992438
lradius 22.726444
lwrist -2.103813
lhand -19.668800 -28.799300
lfingers 7.125020
lthumb 6.659510 1.076010
rfemur -34.560696 -4.668317 20.414054
rtibia 65.621784
rfoot -20.827511 -11.485988
rtoes -20.766800
lfemur -19.658736 -2.321797 -26.068361
ltibia 33.170023
lfoot -20.347463 5.018665
ltoes -22.051700
94
root 0.670440 2.055427 41.955968 9.068606 -1.019834 3.091696
lowerback -2.483094 -0.932639 -5.746462
upperback -0.029831 -1.071935 2.244282
thorax 1.479961 -0.577811 5.516198
lowerneck -21.507191 -3.446058 -11.529044
upperneck 19.254334 -3.666310 11.655529
head 10.094410 -1.222560 5.514859
rclavicle 0.000000 -0.000000
rhumerus -30.067454 22.186576 -82.461293
rradius 34.334148
rwrist -13.319137
rhand -28.856200 -18.800500
rfingers 7.125020
rthumb -2.212790 -48.768800
lclavicle 0.000000 -0.000000
lhumerus -30.693015 -12.499835 85.250818
lradius 23.039305
lwrist -1.506163
lhand -19.668800 -28.799300
lfingers 7.125020
lthumb 6.659510 1.076010
rfemur -35.104451 -4.626887 20.584537
rtibia 65.115997
rfoot -21.126117 -11.353331
rtoes -20.766800
lfemur -19.671636 -2.455756 -26.009235
ltibia 33.394555
lfoot -20.652529 5.047648
ltoes -22.051700
95
root 0.695421 2.036054 42.456640 9.273013 -0.928444 3.005070
lowerback -2.435852 -0.981558 -5.718032
upperback 0.013252 -1.140368 2.263090
thorax 1.506301 -0.613307 5.516517
lowerneck -21.486933 -3.497342 -11.533687
upperneck 19.170869 -3.743221 11.675316
head 10.067217 -1.254965 5.507564
rclavicle 0.000000 -0.000000
rhumerus -30.504143 22.147197 -82.479007
rradius 34.480084
rwrist -13.526961
rhand -28.856200 -18.800500
rfingers 7.125020
rthumb -2.212790 -48.768800
lclavicle 0.000000 -0.000000
lhumerus -30.315741 -13.175312 85.460167
lradius 23.277997
lwrist -0.993598
lhand -19.668800 -28.799300
lfingers 7.125020
lthumb 6.659510 1.076010
rfemur -35.602168 -4.611109 20.740133
rtibia 64.751954
rfoot -21.364436 -11.231759
rtoes -20.766800
lfemur -19.747572 -2.570448 -25.947300
ltibia 33.601508
lfoot -20.905458 5.038714
ltoes -22.051700
96
root 0.720932 2.017352 42.966058 9.482279 -0.794168 2.901145
lowerback -2.405729 -1.037556 -5.660643
upperback 0.058794 -1.218856 2.276949
thorax 1.546012 -0.654119 5.494335
lowerneck -21.462872 -3.548662 -11.526631
upperneck 19.074085 -3.820952 11.677260
head 10.034757 -1.288396 5.491136
rclavicle 0.000000 -0.000000
rhumerus -30.984493 22.058078 -82.489787
rradius 34.711509
rwrist -13.805649
rhand -28.856200 -18.800500
rfingers 7.125020
rthumb -2.212790 -48.768800
lclavicle 0.000000 -0.000000
lhumerus -29.911504 -13.831730 85.672698
lradius 23.504141
lwrist -0.451285
lhand -19.668800 -28.799300
lfingers 7.125020
lthumb 6.659510 1.076010
rfemur -36.083821 -4.627289 20.875188
rtibia 64.476103
rfoot -21.541097 -11.113278
rtoes -20.766800
lfemur -19.801644 -2.663516 -25.885853
ltibia 33.722144
lfoot -21.105574 4.972060
ltoes -22.051700
